<svg xmlns="http://www.w3.org/2000/svg" viewBox="0 0 1000 236" width="1000" height="236" font-family="system-ui,'Segoe UI',Roboto,'DejaVu Sans',Arial,sans-serif"><defs><linearGradient id="gBezel" x1="0" y1="0" x2="0" y2="1"><stop offset="0" stop-color="#3a3b40"/><stop offset=".12" stop-color="#1b1c1f"/><stop offset="1" stop-color="#101113"/></linearGradient><linearGradient id="gCream" x1="0" y1="0" x2="0" y2="1"><stop offset="0" stop-color="#e9dfc3"/><stop offset="1" stop-color="#f4ecd6"/></linearGradient><linearGradient id="gGlass" x1="0" y1="0" x2="1" y2="1"><stop offset="0" stop-color="#fff" stop-opacity=".28"/><stop offset=".35" stop-color="#fff" stop-opacity=".04"/><stop offset=".6" stop-color="#fff" stop-opacity="0"/><stop offset="1" stop-color="#9fd9ff" stop-opacity=".08"/></linearGradient><clipPath id="vc0"><rect x="803" y="86" width="146" height="62" rx="3"/></clipPath></defs><rect x="799" y="84" width="160" height="76" rx="9" fill="#000" opacity=".35"/><rect x="796" y="79" width="160" height="76" rx="9" fill="url(#gBezel)" stroke="#050506" stroke-width="1.2"/><g clip-path="url(#vc0)"><rect x="803" y="86" width="146" height="62" fill="url(#gCream)"/><path d="M904 112.8L906.7 113.7L909.4 114.7L912 115.8L914.6 117L917.2 118.2L919.7 119.6L922.2 121L924.6 122.5L927 124L929.3 125.7" stroke="#c9392f" stroke-width="4" fill="none"/><path d="M822.7 125.7L825 124L827.4 122.5L829.8 121L832.3 119.6L834.8 118.2L837.4 117L840 115.8L842.6 114.7L845.3 113.7L848 112.8L850.7 111.9L853.4 111.2L856.2 110.5L859 109.9L861.8 109.4L864.6 109L867.5 108.7L870.3 108.5L873.2 108.4L876 108.3L878.8 108.4L881.7 108.5L884.5 108.7L887.4 109L890.2 109.4L893 109.9L895.8 110.5L898.6 111.2L901.3 111.9L904 112.8L906.7 113.7L909.4 114.7L912 115.8L914.6 117L917.2 118.2L919.7 119.6L922.2 121L924.6 122.5L927 124L929.3 125.7" stroke="#2a2724" stroke-width="1.1" fill="none"/><path d="M822.7 125.7L828 133M839.1 116.2L841.1 120.7M857.1 110.3L859 119.2M876 108.3L876 113.3M894.9 110.3L893 119.2M912.9 116.2L910.9 120.7M929.3 125.7L924 133" stroke="#2a2724" stroke-width="1.2"/><text x="817.9" y="122.2" font-size="10" fill="#2a2724" text-anchor="middle" font-weight="700" letter-spacing="0">−60</text><text x="855.5" y="105.4" font-size="10" fill="#2a2724" text-anchor="middle" font-weight="700" letter-spacing="0">−40</text><text x="896.5" y="105.4" font-size="10" fill="#2a2724" text-anchor="middle" font-weight="700" letter-spacing="0">−20</text><text x="934.1" y="122.2" font-size="10" fill="#2a2724" text-anchor="middle" font-weight="700" letter-spacing="0">0</text><text x="876" y="139.3" font-size="7.5" fill="#2a2724" text-anchor="middle" font-weight="800" letter-spacing="1.5">HARMONICS   dB</text><line x1="876" y1="198.8" x2="870.2" y2="106.7" stroke="#1d1b19" stroke-width="1.5"/><rect x="803" y="86" width="146" height="62" fill="url(#gGlass)"/></g></svg>