<svg xmlns="http://www.w3.org/2000/svg" viewBox="0 0 1000 118" width="1000" height="118" font-family="system-ui,'Segoe UI',Roboto,'DejaVu Sans',Arial,sans-serif"><defs><linearGradient id="gPl" x1="0" y1="0" x2="0" y2="1"><stop offset="0" stop-color="#edf0f3"/><stop offset=".08" stop-color="#c9cbce"/><stop offset=".92" stop-color="#b5b7b9"/><stop offset="1" stop-color="#8d8e90"/></linearGradient><linearGradient id="gSheen" x1="0" y1="0" x2="1" y2="0"><stop offset="0" stop-color="#fff" stop-opacity="0"/><stop offset=".35" stop-color="#fff" stop-opacity=".07"/><stop offset=".55" stop-color="#fff" stop-opacity="0"/><stop offset="1" stop-color="#000" stop-opacity=".08"/></linearGradient><pattern id="gBr" width="400" height="7" patternUnits="userSpaceOnUse"><path d="M0 1.5H170M210 1.5H400M0 4.5H90M130 4.5H330" stroke="#fff" stroke-opacity=".07" stroke-width=".8"/><path d="M40 3H260M300 6H400" stroke="#000" stroke-opacity=".06" stroke-width=".8"/></pattern></defs><path d="M6 0H994A6 6 0 0 1 1000 6V112A6 6 0 0 1 994 118H6A6 6 0 0 1 0 112V6A6 6 0 0 1 6 0ZM626 23h284a7 7 0 0 1 7 7v56a7 7 0 0 1 -7 7h-284a7 7 0 0 1 -7 -7v-56a7 7 0 0 1 7 -7Z" fill="url(#gPl)" fill-rule="evenodd"/><path d="M6 0H994A6 6 0 0 1 1000 6V112A6 6 0 0 1 994 118H6A6 6 0 0 1 0 112V6A6 6 0 0 1 6 0ZM626 23h284a7 7 0 0 1 7 7v56a7 7 0 0 1 -7 7h-284a7 7 0 0 1 -7 -7v-56a7 7 0 0 1 7 -7Z" fill="url(#gBr)" fill-rule="evenodd"/><path d="M6 0H994A6 6 0 0 1 1000 6V112A6 6 0 0 1 994 118H6A6 6 0 0 1 0 112V6A6 6 0 0 1 6 0ZM626 23h284a7 7 0 0 1 7 7v56a7 7 0 0 1 -7 7h-284a7 7 0 0 1 -7 -7v-56a7 7 0 0 1 7 -7Z" fill="url(#gSheen)" fill-rule="evenodd"/><path d="M6 1.2H994" stroke="#fff" stroke-opacity=".45" stroke-width="1.4"/><path d="M6 117H994" stroke="#000" stroke-opacity=".45" stroke-width="1.6"/><rect x="13" y="51.5" width="30" height="15" rx="6" fill="#0b0b0d"/><rect x="957" y="51.5" width="30" height="15" rx="6" fill="#0b0b0d"/><text x="50" y="23.8" font-size="12.5" fill="#2b2a28" text-anchor="start" font-weight="800" letter-spacing="2">LEVEL</text><text x="50" y="38.8" font-size="12.5" fill="#2b2a28" text-anchor="start" font-weight="800" letter-spacing="2">CONTROL</text><text x="50" y="51.8" font-size="5.5" fill="#2b2a28" text-anchor="start" font-weight="600" letter-spacing="0.7" opacity="0.8">MODEL EM-1</text><rect x="170" y="10" width="264" height="98" rx="7" fill="rgba(0,0,0,.035)" stroke="rgba(0,0,0,.32)" stroke-width="1.4"/><path d="M259.6 79.4L256.1 82.9M253.3 69L250.4 70M252.3 56.9L249.4 56.5M257 45.7L254.5 44M266.2 37.8L264.8 35.2M278 35L278 30M289.8 37.8L291.2 35.2M299 45.7L301.5 44M303.7 56.9L306.6 56.5M302.7 69L305.6 70M296.4 79.4L299.9 82.9" stroke="#2b2a28" stroke-width="1.3" stroke-linecap="round" opacity=".85"/><text x="251.1" y="90.9" font-size="6.2" fill="#2b2a28" text-anchor="middle" font-weight="600" letter-spacing="0.1" opacity="0.85">-24</text><text x="242.9" y="49.5" font-size="6.2" fill="#2b2a28" text-anchor="middle" font-weight="600" letter-spacing="0.1" opacity="0.85">-15</text><text x="278" y="26" font-size="6.2" fill="#2b2a28" text-anchor="middle" font-weight="600" letter-spacing="0.1" opacity="0.85">-6</text><text x="313.1" y="49.5" font-size="6.2" fill="#2b2a28" text-anchor="middle" font-weight="600" letter-spacing="0.1" opacity="0.85">+3</text><text x="304.9" y="90.9" font-size="6.2" fill="#2b2a28" text-anchor="middle" font-weight="600" letter-spacing="0.1" opacity="0.85">+12</text><circle cx="278" cy="61" r="8.8" fill="#0a0a0b" opacity=".7"/><text x="278" y="107" font-size="7.5" fill="#2b2a28" text-anchor="middle" font-weight="800" letter-spacing="1.3">LEVEL</text><text x="768" y="107" font-size="6.5" fill="#2b2a28" text-anchor="middle" font-weight="800" letter-spacing="1.3" opacity="0.9">INPUT</text></svg>